# xmcd CD database file
#
# Track frame offsets:
#	150
#	9132
#	20150
#	31522
#	44850
#	55352
#	65610
#	78357
#	87885
#	97952
#	109092
#	118830
#	130777
#	142245
#	151052
#	159732
#	172105
#	182657
#	193907
#	205645
#	218385
#	227152
#	238960
#	251540
#	263832
#	275115
#	288487
#	300950
#	313957
#	325690
#	338180
#
# Disc length: 4647 seconds
#
# Revision: 0
# Processed by: cddbd v1.4PL0 Copyright (c) Steve Scherf et al.
# Submitted via: CDex 1.50
#
DISCID=c112251f
DTITLE=Vernon Oxford - Keeper Of The Flame - Disc 1
DYEAR=1995
DGENRE=Country
TTITLE0=Watermelon Time In Georgia
TTITLE1=Roll, Big Wheels Roll
TTITLE2=Woman, Let Me Sing You a Song
TTITLE3=Move to Town in the Fall
TTITLE4=Nashville Women (master)
TTITLE5=Goin' Home
TTITLE6=Let's Take a Cold Shower
TTITLE7=Field of Flowers
TTITLE8=Hide
TTITLE9=Stone By Stone
TTITLE10=Behind Every Good Man There's a Woman
TTITLE11=Forgetfullness For Sale
TTITLE12=Baby Sister
TTITLE13=Goin' Home (Alt 1)
TTITLE14=Honky Tonk Girls
TTITLE15=Babies, Stop Your Crying
TTITLE16=The Blues Come In
TTITLE17=Treat Yourself Right
TTITLE18=Little Sister Throw Your Red Shoes Away
TTITLE19=The Old Folks' Home
TTITLE20=That's The Way I Talk
TTITLE21=Touch of God's Hands
TTITLE22=Come Back and See Us
TTITLE23=This Woman is Mine
TTITLE24=A Mansion on the Hill
TTITLE25=Wedding Bells
TTITLE26=Don't Let a Little Thing Like That
TTITLE27=You Win Again
TTITLE28=Touch of God's Hands (master)
TTITLE29=Come Back and See Us (master)
TTITLE30=Nashville Women (take 10)
EXTD=YEAR: 1995
EXTT0=
EXTT1=
EXTT2=
EXTT3=
EXTT4=
EXTT5=
EXTT6=
EXTT7=
EXTT8=
EXTT9=
EXTT10=
EXTT11=
EXTT12=
EXTT13=
EXTT14=
EXTT15=
EXTT16=
EXTT17=
EXTT18=
EXTT19=
EXTT20=
EXTT21=
EXTT22=
EXTT23=
EXTT24=
EXTT25=
EXTT26=
EXTT27=
EXTT28=
EXTT29=
EXTT30=
PLAYORDER=
